<svg xmlns="http://www.w3.org/2000/svg" xmlns:xlink="http://www.w3.org/1999/xlink" width="269" zoomAndPan="magnify" viewBox="0 0 201.75 42" height="56" preserveAspectRatio="xMidYMid meet" version="1.0"><defs><g/></defs><g fill="#004aad" fill-opacity="1"><g transform="translate(18.786399, 30.514271)"><g><path d="M 1.515625 -22.359375 C 1.515625 -23.109375 1.785156 -23.75 2.328125 -24.28125 C 2.867188 -24.8125 3.515625 -25.078125 4.265625 -25.078125 C 5.015625 -25.078125 5.648438 -24.8125 6.171875 -24.28125 C 6.703125 -23.75 6.96875 -23.109375 6.96875 -22.359375 C 6.96875 -21.609375 6.703125 -20.960938 6.171875 -20.421875 C 5.648438 -19.878906 5.015625 -19.609375 4.265625 -19.609375 C 3.515625 -19.609375 2.867188 -19.878906 2.328125 -20.421875 C 1.785156 -20.960938 1.515625 -21.609375 1.515625 -22.359375 Z M 1.859375 0 L 1.859375 -17.609375 L 6.625 -17.609375 L 6.625 0 Z M 1.859375 0 "/></g></g></g><g fill="#004aad" fill-opacity="1"><g transform="translate(27.274409, 30.514271)"><g><path d="M 1.859375 0 L 1.859375 -24.65625 L 6.625 -24.65625 L 6.625 -10.28125 L 13.765625 -17.609375 L 20.21875 -17.609375 L 11.546875 -9.046875 L 20.5 0 L 13.953125 0 L 6.625 -7.640625 L 6.625 0 Z M 1.859375 0 "/></g></g></g><g fill="#004aad" fill-opacity="1"><g transform="translate(47.420238, 30.514271)"><g><path d="M 2.328125 -17.609375 L 17.4375 -17.609375 L 17.4375 0 L 12.671875 0 L 12.671875 -1.6875 C 12.066406 -1.03125 11.332031 -0.519531 10.46875 -0.15625 C 9.613281 0.207031 8.601562 0.390625 7.4375 0.390625 C 6.09375 0.390625 4.9375 0.148438 3.96875 -0.328125 C 3.007812 -0.816406 2.269531 -1.46875 1.75 -2.28125 C 1.238281 -3.101562 0.984375 -4.007812 0.984375 -5 C 0.984375 -5.894531 1.191406 -6.726562 1.609375 -7.5 C 2.035156 -8.269531 2.660156 -8.894531 3.484375 -9.375 C 4.210938 -9.769531 4.972656 -10.03125 5.765625 -10.15625 C 6.566406 -10.289062 7.296875 -10.359375 7.953125 -10.359375 C 8.921875 -10.359375 9.816406 -10.273438 10.640625 -10.109375 C 11.460938 -9.941406 12.140625 -9.765625 12.671875 -9.578125 L 12.671875 -13.3125 L 2.328125 -13.3125 Z M 9.015625 -7.015625 C 8.148438 -7.015625 7.421875 -6.882812 6.828125 -6.625 C 6.242188 -6.363281 5.953125 -5.925781 5.953125 -5.3125 C 5.953125 -4.726562 6.222656 -4.316406 6.765625 -4.078125 C 7.304688 -3.847656 7.867188 -3.734375 8.453125 -3.734375 C 9.367188 -3.734375 10.207031 -3.972656 10.96875 -4.453125 C 11.726562 -4.929688 12.296875 -5.570312 12.671875 -6.375 L 12.671875 -6.40625 C 12.390625 -6.5 11.921875 -6.625 11.265625 -6.78125 C 10.609375 -6.9375 9.859375 -7.015625 9.015625 -7.015625 Z M 9.015625 -7.015625 "/></g></g></g><g fill="#004aad" fill-opacity="1"><g transform="translate(66.720779, 30.514271)"><g><path d="M 6.625 -13.3125 L 6.625 0 L 1.859375 0 L 1.859375 -17.609375 L 11.546875 -17.609375 L 11.546875 -13.3125 Z M 6.625 -13.3125 "/></g></g></g><g fill="#004aad" fill-opacity="1"><g transform="translate(78.977333, 30.514271)"><g><path d="M 17.890625 -7.390625 C 17.890625 -5.910156 17.535156 -4.582031 16.828125 -3.40625 C 16.128906 -2.238281 15.164062 -1.3125 13.9375 -0.625 C 12.71875 0.0507812 11.335938 0.390625 9.796875 0.390625 C 8.242188 0.390625 6.851562 0.0507812 5.625 -0.625 C 4.40625 -1.3125 3.441406 -2.238281 2.734375 -3.40625 C 2.035156 -4.582031 1.6875 -5.910156 1.6875 -7.390625 L 1.6875 -17.609375 L 6.4375 -17.609375 L 6.4375 -7.75 C 6.4375 -6.738281 6.753906 -5.890625 7.390625 -5.203125 C 8.023438 -4.523438 8.828125 -4.1875 9.796875 -4.1875 C 10.753906 -4.1875 11.550781 -4.523438 12.1875 -5.203125 C 12.820312 -5.890625 13.140625 -6.738281 13.140625 -7.75 L 13.140625 -17.609375 L 17.890625 -17.609375 Z M 17.890625 -7.390625 "/></g></g></g><g fill="#004aad" fill-opacity="1"><g transform="translate(98.559637, 30.514271)"><g><path d="M 7.953125 0.390625 C 6.640625 0.390625 5.398438 0.195312 4.234375 -0.1875 C 3.078125 -0.582031 2.125 -1.070312 1.375 -1.65625 L 1.375 -6.6875 C 2.007812 -6.03125 2.878906 -5.398438 3.984375 -4.796875 C 5.085938 -4.203125 6.332031 -3.90625 7.71875 -3.90625 C 9.195312 -3.90625 9.9375 -4.34375 9.9375 -5.21875 C 9.9375 -5.707031 9.71875 -6.054688 9.28125 -6.265625 C 8.84375 -6.472656 8.25 -6.6875 7.5 -6.90625 C 6.5625 -7.1875 5.609375 -7.546875 4.640625 -7.984375 C 3.679688 -8.429688 2.882812 -9.035156 2.25 -9.796875 C 1.613281 -10.566406 1.296875 -11.550781 1.296875 -12.75 C 1.296875 -14.300781 1.847656 -15.5625 2.953125 -16.53125 C 4.054688 -17.507812 5.515625 -18 7.328125 -18 C 8.335938 -18 9.226562 -17.882812 10 -17.65625 C 10.78125 -17.4375 11.640625 -17.328125 12.578125 -17.328125 C 12.785156 -17.328125 13.023438 -17.335938 13.296875 -17.359375 C 13.566406 -17.378906 13.84375 -17.425781 14.125 -17.5 L 14.125 -12.953125 C 13.9375 -12.929688 13.742188 -12.914062 13.546875 -12.90625 C 13.347656 -12.894531 13.148438 -12.890625 12.953125 -12.890625 C 12.203125 -12.890625 11.492188 -12.976562 10.828125 -13.15625 C 10.160156 -13.332031 9.550781 -13.507812 9 -13.6875 C 8.445312 -13.863281 7.9375 -13.953125 7.46875 -13.953125 C 6.59375 -13.953125 6.15625 -13.632812 6.15625 -13 C 6.15625 -12.625 6.375 -12.320312 6.8125 -12.09375 C 7.25 -11.875 7.757812 -11.671875 8.34375 -11.484375 C 9.46875 -11.109375 10.523438 -10.695312 11.515625 -10.25 C 12.503906 -9.800781 13.304688 -9.203125 13.921875 -8.453125 C 14.546875 -7.703125 14.859375 -6.671875 14.859375 -5.359375 C 14.859375 -4.066406 14.546875 -2.992188 13.921875 -2.140625 C 13.304688 -1.296875 12.472656 -0.660156 11.421875 -0.234375 C 10.378906 0.179688 9.222656 0.390625 7.953125 0.390625 Z M 7.953125 0.390625 "/></g></g></g><g fill="#d9d9d9" fill-opacity="1"><g transform="translate(114.591265, 30.514271)"><g><path d="M 13.734375 -7.015625 L 9.9375 0.390625 L 8.953125 0.390625 L -0.28125 -17.609375 L 5 -17.609375 L 9.578125 -8.421875 L 10.59375 -10.390625 C 10.882812 -10.929688 11.03125 -11.390625 11.03125 -11.765625 C 11.03125 -12.160156 10.945312 -12.539062 10.78125 -12.90625 C 10.613281 -13.269531 10.53125 -13.757812 10.53125 -14.375 C 10.53125 -15.382812 10.828125 -16.191406 11.421875 -16.796875 C 12.023438 -17.410156 12.796875 -17.71875 13.734375 -17.71875 C 14.691406 -17.71875 15.460938 -17.40625 16.046875 -16.78125 C 16.640625 -16.15625 16.9375 -15.363281 16.9375 -14.40625 C 16.9375 -13.820312 16.859375 -13.332031 16.703125 -12.9375 C 16.554688 -12.550781 16.484375 -12.148438 16.484375 -11.734375 C 16.484375 -11.328125 16.613281 -10.878906 16.875 -10.390625 L 17.890625 -8.421875 L 22.46875 -17.609375 L 27.75 -17.609375 L 18.53125 0.390625 L 17.53125 0.390625 Z M 13.734375 -7.015625 "/></g></g></g><g fill="#d9d9d9" fill-opacity="1"><g transform="translate(142.062843, 30.514271)"><g><path d="M 10.5625 -7.78125 C 9.675781 -7.78125 8.804688 -7.832031 7.953125 -7.9375 C 7.109375 -8.039062 6.429688 -8.175781 5.921875 -8.34375 C 5.960938 -6.976562 6.453125 -5.925781 7.390625 -5.1875 C 8.328125 -4.445312 9.597656 -4.078125 11.203125 -4.078125 C 12.660156 -4.078125 13.90625 -4.367188 14.9375 -4.953125 C 15.96875 -5.546875 16.800781 -6.171875 17.4375 -6.828125 L 17.4375 -1.65625 C 16.6875 -1.070312 15.734375 -0.582031 14.578125 -0.1875 C 13.429688 0.195312 12.140625 0.390625 10.703125 0.390625 C 8.617188 0.390625 6.847656 -0.015625 5.390625 -0.828125 C 3.929688 -1.640625 2.828125 -2.722656 2.078125 -4.078125 C 1.328125 -5.441406 0.953125 -6.96875 0.953125 -8.65625 C 0.953125 -10.46875 1.34375 -12.070312 2.125 -13.46875 C 2.914062 -14.863281 4.023438 -15.96875 5.453125 -16.78125 C 6.890625 -17.59375 8.554688 -18 10.453125 -18 C 11.984375 -18 13.269531 -17.75 14.3125 -17.25 C 15.363281 -16.757812 16.15625 -16.101562 16.6875 -15.28125 C 17.226562 -14.457031 17.5 -13.566406 17.5 -12.609375 C 17.5 -11.710938 17.285156 -10.910156 16.859375 -10.203125 C 16.441406 -9.503906 15.894531 -8.976562 15.21875 -8.625 C 14.75 -8.363281 14.210938 -8.175781 13.609375 -8.0625 C 13.015625 -7.945312 12.441406 -7.867188 11.890625 -7.828125 C 11.335938 -7.796875 10.894531 -7.78125 10.5625 -7.78125 Z M 9.4375 -11.125 C 10.394531 -11.125 11.148438 -11.210938 11.703125 -11.390625 C 12.253906 -11.566406 12.53125 -11.925781 12.53125 -12.46875 C 12.53125 -13.007812 12.300781 -13.378906 11.84375 -13.578125 C 11.394531 -13.773438 10.863281 -13.875 10.25 -13.875 C 9.351562 -13.875 8.566406 -13.671875 7.890625 -13.265625 C 7.210938 -12.867188 6.707031 -12.25 6.375 -11.40625 C 6.675781 -11.34375 7.078125 -11.28125 7.578125 -11.21875 C 8.085938 -11.15625 8.707031 -11.125 9.4375 -11.125 Z M 9.4375 -11.125 "/></g></g></g><g fill="#d9d9d9" fill-opacity="1"><g transform="translate(160.905524, 30.514271)"><g><path d="M 20.890625 -8.796875 C 20.890625 -7.128906 20.492188 -5.597656 19.703125 -4.203125 C 18.921875 -2.804688 17.851562 -1.691406 16.5 -0.859375 C 15.144531 -0.0234375 13.625 0.390625 11.9375 0.390625 C 10.71875 0.390625 9.664062 0.171875 8.78125 -0.265625 C 7.90625 -0.703125 7.1875 -1.25 6.625 -1.90625 L 6.625 0 L 1.859375 0 L 1.859375 -24.65625 L 6.625 -24.65625 L 6.625 -15.703125 C 7.1875 -16.359375 7.90625 -16.90625 8.78125 -17.34375 C 9.664062 -17.78125 10.71875 -18 11.9375 -18 C 13.625 -18 15.144531 -17.582031 16.5 -16.75 C 17.851562 -15.914062 18.921875 -14.804688 19.703125 -13.421875 C 20.492188 -12.035156 20.890625 -10.492188 20.890625 -8.796875 Z M 15.890625 -8.796875 C 15.890625 -9.671875 15.679688 -10.453125 15.265625 -11.140625 C 14.859375 -11.835938 14.300781 -12.394531 13.59375 -12.8125 C 12.882812 -13.238281 12.109375 -13.453125 11.265625 -13.453125 C 10.421875 -13.453125 9.644531 -13.238281 8.9375 -12.8125 C 8.238281 -12.394531 7.675781 -11.835938 7.25 -11.140625 C 6.832031 -10.453125 6.625 -9.671875 6.625 -8.796875 C 6.625 -7.953125 6.832031 -7.175781 7.25 -6.46875 C 7.675781 -5.769531 8.238281 -5.207031 8.9375 -4.78125 C 9.644531 -4.363281 10.421875 -4.15625 11.265625 -4.15625 C 12.109375 -4.15625 12.882812 -4.363281 13.59375 -4.78125 C 14.300781 -5.207031 14.859375 -5.769531 15.265625 -6.46875 C 15.679688 -7.175781 15.890625 -7.953125 15.890625 -8.796875 Z M 15.890625 -8.796875 "/></g></g></g></svg>